<svg width="293" height="88" viewBox="0 0 293 88" fill="none" xmlns="http://www.w3.org/2000/svg">
<path d="M290.317 76.8026C290.317 81.3808 286.605 85.0924 282.024 85.0924C282.024 85.0924 282.017 85.0924 282.014 85.0924H10.3668C5.78226 85.0988 2.06106 81.3871 2.05469 76.8026V10.6908C2.06106 6.10618 5.77907 2.39136 10.3668 2.39136H282.014C286.599 2.39136 290.314 6.10618 290.314 10.6908V76.8026H290.317Z" fill="white"/>
<path d="M282.019 87.0201H10.3686C4.71987 87.0201 0.14165 82.4482 0.128906 76.8027V10.6941C0.138464 5.0454 4.71668 0.467175 10.3686 0.463989H282.016C287.665 0.470361 292.243 5.0454 292.256 10.6941V76.8027C292.259 82.4387 287.658 87.0201 282.019 87.0201Z" fill="#A6A5A5"/>
<path d="M290.317 76.8026C290.317 81.3808 286.605 85.0924 282.024 85.0924C282.024 85.0924 282.017 85.0924 282.014 85.0924H10.3668C5.78226 85.0988 2.06106 81.3871 2.05469 76.8026V10.6908C2.06106 6.10618 5.77907 2.39136 10.3668 2.39136H282.014C286.599 2.39136 290.314 6.10618 290.314 10.6908V76.8026H290.317Z" fill="#010101"/>
<path opacity="0.1" d="M282.018 0.463867H136.512L193.502 87.0199H282.014C287.663 87.0168 292.241 82.4417 292.254 76.7962V10.694C292.244 5.04527 287.666 0.470239 282.014 0.463867H282.018Z" fill="white"/>
<path d="M67.4437 44.5192C67.3832 37.6949 73.0319 34.3783 73.2899 34.2222C70.0912 29.558 65.1307 28.9208 63.388 28.8698C59.2239 28.4302 55.1841 31.3612 53.0623 31.3612C50.9404 31.3612 47.6302 28.9112 44.1097 28.9845C39.5793 29.0546 35.3388 31.6767 33.0131 35.7515C28.215 44.0573 31.7928 56.2595 36.3902 62.9723C38.6904 66.2634 41.3762 69.9304 44.8935 69.803C48.3343 69.6628 49.6183 67.6111 53.7727 67.6111C57.9272 67.6111 59.0933 69.803 62.6807 69.7202C66.3732 69.6628 68.6989 66.4163 70.9164 63.0997C73.5735 59.3339 74.6408 55.6191 74.6822 55.4311C74.5962 55.4025 67.5138 52.6976 67.4405 44.5192H67.4437ZM60.6672 24.4541C62.5182 22.1411 63.783 18.9934 63.4326 15.7979C60.7532 15.9157 57.4047 17.6489 55.474 19.9141C53.7664 21.9085 52.2435 25.1773 52.6354 28.2518C55.6429 28.4748 58.7333 26.7352 60.664 24.4573L60.6672 24.4541Z" fill="white"/>
<path d="M117.281 66.8847H112.473L109.839 58.6108H100.682L98.1716 66.8847H93.4883L102.562 38.7113H108.166L117.281 66.8847ZM109.045 55.1381L106.662 47.7817C106.411 47.0299 105.936 45.2616 105.241 42.4739H105.155C104.875 43.6719 104.429 45.4432 103.817 47.7817L101.475 55.1381H109.042H109.045ZM140.57 56.4794C140.57 59.933 139.634 62.6665 137.754 64.6705C136.072 66.4546 133.982 67.3467 131.49 67.3467C128.798 67.3467 126.864 66.3877 125.689 64.4666V75.1268H121.174V53.252C121.174 51.0824 121.117 48.8586 121.005 46.5743H124.975L125.227 49.7953H125.313C126.82 47.3707 129.104 46.1569 132.169 46.1569C134.565 46.1569 136.566 47.1031 138.168 48.9988C139.767 50.8976 140.57 53.3922 140.57 56.4858V56.4794ZM135.97 56.6451C135.97 54.6666 135.524 53.0386 134.632 51.7514C133.657 50.4165 132.344 49.7475 130.7 49.7475C129.585 49.7475 128.575 50.1202 127.67 50.8562C126.766 51.5985 126.17 52.5639 125.893 53.7618C125.768 54.211 125.698 54.6698 125.682 55.1349V58.5248C125.682 59.9999 126.135 61.2456 127.043 62.2683C127.948 63.2846 129.126 63.7944 130.576 63.7944C132.277 63.7944 133.599 63.1349 134.546 61.8286C135.495 60.5192 135.97 58.7924 135.97 56.6451ZM163.939 56.4794C163.939 59.933 163.003 62.6665 161.123 64.6705C159.441 66.4546 157.351 67.3467 154.856 67.3467C152.164 67.3467 150.23 66.3877 149.055 64.4666V75.1268H144.54V53.252C144.54 51.0824 144.483 48.8586 144.371 46.5743H148.341L148.593 49.7953H148.679C150.182 47.3707 152.467 46.1569 155.535 46.1569C157.931 46.1569 159.931 47.1031 161.537 48.9988C163.133 50.8976 163.939 53.3922 163.939 56.4858V56.4794ZM159.339 56.6451C159.339 54.6666 158.893 53.0386 157.998 51.7514C157.023 50.4165 155.716 49.7475 154.072 49.7475C152.957 49.7475 151.947 50.1202 151.039 50.8562C150.135 51.5985 149.542 52.5639 149.265 53.7618C149.128 54.3193 149.055 54.7749 149.055 55.1349V58.5248C149.055 59.9999 149.51 61.2456 150.412 62.2683C151.317 63.2814 152.495 63.7944 153.948 63.7944C155.649 63.7944 156.975 63.1349 157.918 61.8286C158.867 60.5192 159.342 58.7924 159.342 56.6451H159.339ZM190.071 58.9836C190.071 61.3826 189.233 63.3324 187.566 64.8362C185.731 66.4801 183.173 67.3021 179.891 67.3021C176.858 67.3021 174.428 66.7191 172.596 65.5466L173.641 61.784C175.619 62.9564 177.795 63.5395 180.162 63.5395C181.864 63.5395 183.189 63.154 184.132 62.3893C185.078 61.6215 185.556 60.5988 185.556 59.3213C185.556 58.1775 185.161 57.2185 184.384 56.4348C183.603 55.6542 182.31 54.931 180.497 54.262C175.562 52.4237 173.093 49.7315 173.093 46.1919C173.093 43.8789 173.966 41.9865 175.705 40.5082C177.445 39.0299 179.754 38.2908 182.625 38.2908C185.19 38.2908 187.324 38.7368 189.022 39.6289L187.888 43.3087C186.292 42.4453 184.489 42.012 182.475 42.012C180.882 42.012 179.633 42.4038 178.741 43.1812C177.989 43.8789 177.607 44.7264 177.607 45.7332C177.607 46.8451 178.04 47.769 178.904 48.4922C179.652 49.1581 181.022 49.8845 182.998 50.665C185.425 51.6431 187.206 52.7805 188.35 54.0899C189.5 55.3994 190.071 57.0306 190.071 58.9772V58.9836ZM205.035 49.9577H200.059V59.8215C200.059 62.3288 200.935 63.5809 202.693 63.5809C203.499 63.5809 204.168 63.514 204.697 63.3706L204.822 66.7987C203.933 67.1301 202.76 67.2989 201.311 67.2989C199.526 67.2989 198.134 66.7541 197.127 65.6677C196.127 64.5781 195.62 62.7557 195.62 60.191V49.9514H192.658V46.5647H195.62V42.8467L200.055 41.5086V46.5647H205.032V49.9609L205.035 49.9577ZM227.442 56.559C227.442 59.6813 226.55 62.246 224.766 64.2499C222.899 66.3144 220.42 67.3435 217.323 67.3435C214.226 67.3435 211.964 66.3559 210.193 64.3806C208.422 62.4021 207.539 59.9075 207.539 56.8999C207.539 53.8924 208.454 51.1748 210.276 49.1676C212.105 47.1605 214.564 46.1569 217.658 46.1569C220.751 46.1569 223.036 47.1477 224.845 49.1262C226.578 51.0442 227.439 53.5196 227.439 56.5622L227.442 56.559ZM222.762 56.6642C222.762 54.8036 222.36 53.2074 221.551 51.8725C220.605 50.2604 219.251 49.4544 217.495 49.4544C215.74 49.4544 214.3 50.2604 213.357 51.8725C212.547 53.2074 212.146 54.8323 212.146 56.7502C212.146 58.6681 212.547 60.2133 213.357 61.5451C214.332 63.1572 215.695 63.9632 217.457 63.9632C219.219 63.9632 220.535 63.1412 221.513 61.5037C222.344 60.1369 222.758 58.528 222.758 56.6642H222.762ZM242.123 50.5408C241.654 50.4548 241.176 50.4133 240.699 50.4165C239.112 50.4165 237.882 51.0123 237.019 52.2166C236.27 53.2743 235.891 54.6124 235.891 56.2277V66.8879H231.376V52.9717C231.38 50.8403 231.338 48.7057 231.246 46.5774H235.177L235.343 50.4643H235.467C235.945 49.1294 236.694 48.0525 237.723 47.2433C238.666 46.5392 239.81 46.1569 240.985 46.1537C241.403 46.1537 241.779 46.1824 242.113 46.2365V50.544H242.116L242.123 50.5408ZM262.312 55.7689C262.325 56.4539 262.268 57.1421 262.146 57.8175H248.603C248.654 59.8247 249.31 61.3603 250.569 62.4212C251.709 63.3643 253.184 63.839 254.997 63.839C257.001 63.839 258.833 63.5204 260.477 62.88L261.184 66.0118C259.263 66.8497 256.992 67.267 254.373 67.267C251.222 67.267 248.75 66.3399 246.949 64.4889C245.153 62.6379 244.254 60.1464 244.254 57.0274C244.254 53.9083 245.092 51.4169 246.765 49.3811C248.517 47.2083 250.887 46.1219 253.869 46.1219C256.851 46.1219 259.015 47.2083 260.522 49.3811C261.713 51.1015 262.312 53.2361 262.312 55.7689ZM258.008 54.5997C258.04 53.2584 257.743 52.1051 257.132 51.1302C256.351 49.8717 255.147 49.2473 253.535 49.2473C252.06 49.2473 250.855 49.859 249.941 51.0856C249.189 52.0605 248.743 53.2329 248.606 54.5965H258.008V54.5997Z" fill="white"/>
<path d="M99.3793 31.199C98.124 31.199 97.0376 31.1384 96.1328 31.0333V17.4133C97.3976 17.219 98.6752 17.1202 99.956 17.1266C105.133 17.1266 107.516 19.6722 107.516 23.8235C107.516 28.612 104.7 31.199 99.3793 31.199ZM100.138 18.8725C99.4398 18.8725 98.8441 18.9139 98.3502 19.0159V29.3702C98.6179 29.4116 99.1308 29.4308 99.8508 29.4308C103.244 29.4308 105.175 27.5001 105.175 23.884C105.175 20.6598 103.429 18.8725 100.141 18.8725H100.138ZM114.946 31.3041C112.028 31.3041 110.138 29.1249 110.138 26.1683C110.138 23.2118 112.069 20.8892 115.112 20.8892C117.988 20.8892 119.919 22.9633 119.919 26.0059C119.919 29.0484 117.928 31.3041 114.946 31.3041ZM115.032 22.5109C113.429 22.5109 112.403 24.0083 112.403 26.1046C112.403 28.201 113.452 29.6601 115.013 29.6601C116.574 29.6601 117.622 28.0576 117.622 26.0632C117.622 24.0688 116.596 22.5109 115.035 22.5109H115.032ZM136.559 21.0931L133.437 31.0779H131.401L130.108 26.7418C129.786 25.6809 129.518 24.604 129.305 23.5176H129.264C129.101 24.6072 128.792 25.6968 128.464 26.7418L127.088 31.0779H125.033L122.092 21.0931H124.373L125.504 25.8402C125.772 26.9712 125.995 28.0385 126.183 29.0453H126.224C126.387 28.2042 126.654 27.156 127.046 25.8625L128.464 21.0963H130.274L131.631 25.7605C131.959 26.8916 132.227 28.0003 132.434 29.0484H132.494C132.638 28.0226 132.864 26.933 133.173 25.7605L134.387 21.0963H136.566L136.559 21.0931ZM148.058 31.0779H145.837V25.3464C145.837 23.5813 145.158 22.6956 143.823 22.6956C142.488 22.6956 141.603 23.8267 141.603 25.1393V31.0779H139.382V23.9477C139.382 23.0652 139.36 22.119 139.299 21.0931H141.252L141.357 22.6351H141.418C142.014 21.5678 143.228 20.8892 144.585 20.8892C146.681 20.8892 148.058 22.4917 148.058 25.101V31.0779ZM154.178 31.0779H151.957V16.5149H154.178V31.0779ZM162.27 31.3041C159.355 31.3041 157.462 29.1249 157.462 26.1683C157.462 23.2118 159.393 20.8892 162.436 20.8892C165.313 20.8892 167.243 22.9633 167.243 26.0059C167.243 29.1249 165.252 31.3041 162.27 31.3041ZM162.353 22.5109C160.75 22.5109 159.725 24.0083 159.725 26.1046C159.725 28.201 160.776 29.6601 162.331 29.6601C163.885 29.6601 164.94 28.0576 164.94 26.0632C164.94 24.0306 163.917 22.5109 162.353 22.5109ZM175.992 31.0779L175.83 29.9278H175.769C175.09 30.8517 174.103 31.3041 172.847 31.3041C171.057 31.3041 169.789 30.052 169.789 28.3667C169.789 25.9039 171.927 24.6295 175.626 24.6295V24.4447C175.626 23.1289 174.928 22.4726 173.552 22.4726C172.567 22.4726 171.704 22.7211 170.942 23.215L170.49 21.7558C171.414 21.1791 172.564 20.8924 173.918 20.8924C176.527 20.8924 177.843 22.2687 177.843 25.0214V28.698C177.843 29.7048 177.888 30.4853 177.986 31.0811H175.986L175.992 31.0779ZM175.686 26.1046C173.22 26.1046 171.984 26.7004 171.984 28.1181C171.984 29.1663 172.621 29.6793 173.507 29.6793C174.635 29.6793 175.686 28.8191 175.686 27.6466V26.1046ZM188.624 31.0779L188.519 29.4754H188.459C187.821 30.686 186.751 31.3041 185.254 31.3041C182.845 31.3041 181.064 29.1886 181.064 26.2098C181.064 23.2309 182.912 20.8892 185.435 20.8892C186.77 20.8892 187.716 21.3416 188.252 22.2464H188.296V16.5149H190.517V28.389C190.517 29.3543 190.539 30.2591 190.6 31.0811H188.624V31.0779ZM188.296 25.203C188.296 23.8044 187.372 22.6128 185.958 22.6128C184.314 22.6128 183.307 24.072 183.307 26.1237C183.307 28.1755 184.352 29.5136 185.913 29.5136C187.309 29.5136 188.296 28.2997 188.296 26.8629V25.1998V25.203ZM204.602 31.3041C201.687 31.3041 199.794 29.1249 199.794 26.1683C199.794 23.2118 201.725 20.8892 204.768 20.8892C207.644 20.8892 209.575 22.9633 209.575 26.0059C209.575 29.1249 207.584 31.3041 204.602 31.3041ZM204.685 22.5109C203.085 22.5109 202.056 24.0083 202.056 26.1046C202.056 28.201 203.104 29.6601 204.662 29.6601C206.22 29.6601 207.272 28.0576 207.272 26.0632C207.275 24.0306 206.249 22.5109 204.685 22.5109ZM221.51 31.0779H219.289V25.3464C219.289 23.5813 218.611 22.6956 217.276 22.6956C215.941 22.6956 215.058 23.8267 215.058 25.1393V31.0779H212.838V23.9477C212.838 23.0652 212.815 22.119 212.755 21.0931H214.708L214.813 22.6351H214.873C215.469 21.5678 216.683 20.8892 218.037 20.8892C220.133 20.8892 221.513 22.4917 221.513 25.101V31.0811L221.51 31.0779ZM236.439 22.7594H233.999V27.6084C233.999 28.8414 234.426 29.4594 235.289 29.4594C235.681 29.4594 236.009 29.418 236.273 29.3543L236.334 31.0397C235.904 31.2053 235.327 31.2882 234.614 31.2882C232.865 31.2882 231.82 30.3228 231.82 27.7964V22.7626H230.364V21.0995H231.82V19.2707L233.999 18.6113V21.0963H236.439V22.7626V22.7594ZM248.186 31.0779H245.968V25.3878C245.968 23.6005 245.293 22.6956 243.955 22.6956C242.805 22.6956 241.734 23.4762 241.734 25.0596V31.0779H239.517V16.5149H241.734V22.5109H241.779C242.477 21.4213 243.49 20.886 244.78 20.886C246.892 20.886 248.186 22.53 248.186 25.1393V31.0779ZM260.222 26.6207H253.564C253.605 28.51 254.857 29.5773 256.711 29.5773C257.696 29.5773 258.604 29.4116 259.404 29.1058L259.748 30.6478C258.805 31.0588 257.693 31.2627 256.399 31.2627C253.277 31.2627 251.426 29.2906 251.426 26.2321C251.426 23.1735 253.318 20.8701 256.147 20.8701C258.699 20.8701 260.299 22.7594 260.299 25.6172C260.315 25.9549 260.286 26.2926 260.222 26.6239V26.6207ZM258.186 25.0405C258.186 23.4985 257.409 22.4121 255.991 22.4121C254.717 22.4121 253.71 23.5208 253.564 25.0405H258.186Z" fill="white"/>
</svg>
