<svg width="293" height="88" viewBox="0 0 293 88" fill="none" xmlns="http://www.w3.org/2000/svg">
<path d="M290.188 76.8024C290.188 81.3807 286.476 85.0923 281.895 85.0923C281.895 85.0923 281.889 85.0923 281.885 85.0923H10.2379C5.65335 85.0987 1.93215 81.387 1.92578 76.8024V10.6907C1.93215 6.10606 5.65016 2.39124 10.2379 2.39124H281.885C286.47 2.39124 290.185 6.10606 290.185 10.6907V76.8024H290.188Z" fill="white"/>
<path d="M281.89 87.0199H10.2397C4.59096 87.0199 0.0127438 82.4481 0 76.8026V10.694C0.00955787 5.04527 4.58778 0.467053 10.2397 0.463867H281.887C287.536 0.470239 292.114 5.04527 292.127 10.694V76.8026C292.13 82.4385 287.529 87.0199 281.89 87.0199Z" fill="#A6A5A5"/>
<path d="M290.188 76.8024C290.188 81.3807 286.476 85.0923 281.895 85.0923C281.895 85.0923 281.889 85.0923 281.885 85.0923H10.2379C5.65335 85.0987 1.93215 81.387 1.92578 76.8024V10.6907C1.93215 6.10606 5.65016 2.39124 10.2379 2.39124H281.885C286.47 2.39124 290.185 6.10606 290.185 10.6907V76.8024H290.188Z" fill="#010101"/>
<path opacity="0.1" d="M281.889 0.463867H136.383L193.373 87.0199H281.885C287.534 87.0168 292.112 82.4417 292.125 76.7962V10.694C292.116 5.04527 287.537 0.470239 281.885 0.463867H281.889Z" fill="white"/>
<path d="M103.223 26.6299C103.223 28.3216 102.8 29.8031 101.742 30.8608C100.474 32.1288 98.9924 32.766 97.0872 32.766C95.182 32.766 93.7006 32.132 92.4325 30.8608C91.1645 29.5928 90.5273 28.1113 90.5273 26.2061C90.5273 24.3009 91.1614 22.8195 92.4325 21.5514C93.7006 20.2834 95.182 19.6462 97.0872 19.6462C97.9347 19.6462 98.779 19.8565 99.6264 20.2802C100.474 20.704 101.108 21.1277 101.532 21.7617L100.474 22.8195C99.6264 21.7617 98.5687 21.338 97.0872 21.338C95.8192 21.338 94.548 21.7617 93.7006 22.8195C92.6428 23.6669 92.2191 24.9349 92.2191 26.4164C92.2191 27.8979 92.6428 29.1659 93.7006 30.0133C94.7583 30.8608 95.816 31.4948 97.0872 31.4948C98.5687 31.4948 99.6264 31.0711 100.684 30.0133C101.318 29.3793 101.742 28.5319 101.742 27.4741H97.0872V25.7824H103.223V26.6299ZM112.956 21.3412H107.244V25.3618H112.533V26.8433H107.244V30.864H112.956V32.5557H105.552V19.8597H112.956V21.3412ZM119.94 32.5557H118.248V21.3412H114.651V19.8597H123.537V21.3412H119.94V32.5557ZM129.673 32.5557V19.8597H131.365V32.5557H129.673ZM138.559 32.5557H136.867V21.3412H133.27V19.8597H141.945V21.3412H138.349V32.5557H138.559ZM158.659 30.864C157.391 32.132 155.91 32.7692 154.004 32.7692C152.099 32.7692 150.618 32.1352 149.35 30.864C148.082 29.596 147.444 28.1145 147.444 26.2093C147.444 24.3041 148.078 22.8226 149.35 21.5546C150.618 20.2866 152.099 19.6494 154.004 19.6494C155.91 19.6494 157.391 20.2834 158.659 21.5546C159.927 22.8226 160.564 24.3041 160.564 26.2093C160.564 28.1145 159.93 29.596 158.659 30.864ZM150.618 29.8063C151.465 30.6537 152.733 31.2877 154.004 31.2877C155.276 31.2877 156.544 30.864 157.391 29.8063C158.238 28.9588 158.872 27.6908 158.872 26.2093C158.872 24.7278 158.449 23.4598 157.391 22.6124C156.544 21.7649 155.276 21.1309 154.004 21.1309C152.733 21.1309 151.465 21.5546 150.618 22.6124C149.77 23.4598 149.136 24.7278 149.136 26.2093C149.136 27.6908 149.56 28.9588 150.618 29.8063ZM162.89 32.5557V19.8597H164.795L170.931 29.8031V19.8597H172.623V32.5557H170.931L164.371 22.1886V32.5557H162.89Z" fill="white"/>
<path d="M147.019 48.4219C141.941 48.4219 137.92 52.2291 137.92 57.521C137.92 62.8129 141.941 66.6201 147.019 66.6201C152.098 66.6201 156.119 62.8129 156.119 57.521C156.119 52.2291 152.098 48.4219 147.019 48.4219ZM147.019 62.8097C144.27 62.8097 141.941 60.4808 141.941 57.3075C141.941 54.1343 144.27 51.8054 147.019 51.8054C149.769 51.8054 152.098 53.9209 152.098 57.3075C152.098 60.4808 149.769 62.8097 147.019 62.8097ZM127.343 48.4219C122.265 48.4219 118.244 52.2291 118.244 57.521C118.244 62.8129 122.265 66.6201 127.343 66.6201C132.421 66.6201 136.442 62.8129 136.442 57.521C136.442 52.2291 132.421 48.4219 127.343 48.4219ZM127.343 62.8097C124.594 62.8097 122.265 60.4808 122.265 57.3075C122.265 54.1343 124.594 51.8054 127.343 51.8054C130.092 51.8054 132.421 53.9209 132.421 57.3075C132.421 60.4808 130.092 62.8097 127.343 62.8097ZM103.859 51.1714V54.9786H112.958C112.748 57.0941 111.901 58.7858 110.843 59.8436C109.575 61.1116 107.456 62.593 103.859 62.593C98.1469 62.593 93.9159 58.1486 93.9159 52.4362C93.9159 46.7238 98.3603 42.2794 103.859 42.2794C106.822 42.2794 109.148 43.5474 110.843 45.0289L113.592 42.2794C111.263 40.1639 108.304 38.4722 104.073 38.4722C96.4551 38.4722 89.8984 44.8186 89.8984 52.4362C89.8984 60.0538 96.4583 66.4003 104.073 66.4003C108.304 66.4003 111.267 65.1323 113.806 62.3796C116.345 59.8404 117.193 56.2434 117.193 53.494C117.193 52.6465 117.193 51.8022 116.982 51.165H103.866L103.859 51.1714ZM199.916 54.1343C199.068 52.0189 196.953 48.4219 192.298 48.4219C187.644 48.4219 183.836 52.0189 183.836 57.521C183.836 62.5994 187.644 66.6201 192.722 66.6201C196.743 66.6201 199.282 64.0809 200.126 62.5994L197.163 60.4839C196.105 61.9654 194.834 63.0231 192.719 63.0231C190.603 63.0231 189.332 62.1757 188.274 60.2737L200.333 55.1953L199.91 54.1375L199.916 54.1343ZM187.644 57.0973C187.644 53.7106 190.393 51.8086 192.298 51.8086C193.78 51.8086 195.261 52.656 195.685 53.7138L187.644 57.1005V57.0973ZM177.7 65.7726H181.721V39.326H177.7V65.7726ZM171.354 50.3271C170.296 49.2694 168.604 48.2116 166.489 48.2116C162.044 48.2116 157.813 52.2323 157.813 57.3107C157.813 62.3891 161.834 66.1964 166.489 66.1964C168.604 66.1964 170.296 65.1386 171.144 64.0809H171.354V65.3489C171.354 68.7356 169.449 70.6376 166.489 70.6376C164.16 70.6376 162.468 68.9458 162.044 67.4644L158.658 68.9458C159.715 71.2748 162.255 74.2345 166.699 74.2345C171.144 74.2345 175.161 71.4851 175.161 64.9252V48.8456H171.354V50.3271ZM166.699 62.8097C163.95 62.8097 161.621 60.4808 161.621 57.3075C161.621 54.1343 163.95 51.8054 166.699 51.8054C169.449 51.8054 171.564 54.1343 171.564 57.3075C171.564 60.4808 169.449 62.8097 166.699 62.8097ZM218.324 39.326H208.805V65.7726H212.825V55.8293H218.328C222.772 55.8293 227.003 52.656 227.003 47.5776C227.003 42.4992 222.772 39.326 218.328 39.326H218.324ZM218.535 52.022H212.822V42.9229H218.535C221.498 42.9229 223.189 45.4622 223.189 47.3674C222.979 49.6963 221.284 52.022 218.535 52.022ZM242.866 48.2148C239.903 48.2148 236.943 49.4828 235.882 52.2355L239.479 53.717C240.327 52.2355 241.595 51.8118 243.076 51.8118C245.192 51.8118 247.097 53.0798 247.307 55.1984V55.4087C246.673 54.985 244.978 54.351 243.286 54.351C239.479 54.351 235.669 56.4664 235.669 60.2737C235.669 63.8706 238.842 66.1964 242.229 66.1964C244.978 66.1964 246.249 64.9284 247.307 63.6572H247.517V65.7726H251.324V55.6158C250.901 50.9611 247.304 48.2116 242.863 48.2116L242.866 48.2148ZM242.442 62.8129C241.174 62.8129 239.269 62.1789 239.269 60.4839C239.269 58.3685 241.598 57.7345 243.5 57.7345C245.191 57.7345 246.039 58.1582 247.097 58.5819C246.673 61.1211 244.557 62.8129 242.442 62.8129ZM264.658 48.8488L260.213 60.2737H260.003L255.348 48.8488H251.117L258.101 64.9284L254.08 73.814H258.101L268.892 48.8488H264.661H264.658ZM229.112 65.7758H233.133V39.3292H229.112V65.7758Z" fill="white"/>
<path d="M31.4373 18.0277C30.8033 18.6617 30.5898 19.7195 30.5898 20.9906V67.7509C30.5898 69.0189 31.0136 70.0799 31.6476 70.7139L31.8579 70.9241L58.0942 44.6878V44.2641L31.4373 18.0277Z" fill="url(#paint0_linear_542_516)"/>
<path d="M66.5582 53.5735L57.8828 44.8981V44.2641L66.5582 35.5887L66.7684 35.799L77.1355 41.7217C80.0985 43.4135 80.0985 46.1661 77.1355 47.8579L66.5582 53.5703V53.5735Z" fill="url(#paint1_linear_542_516)"/>
<path d="M66.7737 53.3601L57.888 44.4745L31.4414 70.9211C32.4991 71.9788 33.9806 71.9788 35.8858 71.1314L66.7769 53.3601" fill="url(#paint2_linear_542_516)"/>
<path d="M66.7729 35.5887L35.8819 18.0277C33.9767 16.97 32.4952 17.1803 31.4375 18.238L57.8841 44.4744L66.7698 35.5887H66.7729Z" fill="url(#paint3_linear_542_516)"/>
<defs>
<linearGradient id="paint0_linear_542_516" x1="44.3436" y1="17.8748" x2="44.3436" y2="70.5291" gradientUnits="userSpaceOnUse">
<stop stop-color="#267CAF"/>
<stop offset="0.29" stop-color="#4A92B4"/>
<stop offset="0.77" stop-color="#79BCBA"/>
<stop offset="1" stop-color="#88CEBC"/>
</linearGradient>
<linearGradient id="paint1_linear_542_516" x1="71.5761" y1="38.1184" x2="65.1532" y2="52.6432" gradientUnits="userSpaceOnUse">
<stop stop-color="#F48879"/>
<stop offset="0.12" stop-color="#F5907A"/>
<stop offset="0.71" stop-color="#FBB777"/>
<stop offset="1" stop-color="#FDC874"/>
</linearGradient>
<linearGradient id="paint2_linear_542_516" x1="62.0266" y1="49.1642" x2="33.1332" y2="72.53" gradientUnits="userSpaceOnUse">
<stop stop-color="#EB413D"/>
<stop offset="0.17" stop-color="#D94452"/>
<stop offset="0.57" stop-color="#AF487A"/>
<stop offset="0.86" stop-color="#954B92"/>
<stop offset="1" stop-color="#894A9C"/>
</linearGradient>
<linearGradient id="paint3_linear_542_516" x1="35.1842" y1="19.3021" x2="62.8192" y2="40.4091" gradientUnits="userSpaceOnUse">
<stop stop-color="#54C0AC"/>
<stop offset="1" stop-color="#DDE79A"/>
</linearGradient>
</defs>
</svg>
